<?xml version="1.0" encoding="UTF-8"?>
<svg version="1.1" xmlns="http://www.w3.org/2000/svg" width="910" height="915">
<path d="M0 0 C0.86173828 0.16097168 1.72347656 0.32194336 2.61132812 0.48779297 C24.83059473 4.69329416 46.72179399 11.9876059 67 22 C67.7130127 22.35030273 68.42602539 22.70060547 69.16064453 23.06152344 C85.67140129 31.26713731 100.49733211 41.66729336 115 53 C115.82250244 53.64243652 115.82250244 53.64243652 116.66162109 54.29785156 C131.60396175 66.11964737 145.53838567 79.92858186 156.77148438 95.33154297 C158.01227561 97.0166716 159.28982183 98.66739751 160.578125 100.31640625 C183.9568519 130.63602887 197.81356857 165.52341316 209.89898682 201.4671936 C216.27159772 220.40742897 223.44640399 238.98033715 230.99586487 257.48138428 C232.88480527 262.13728331 234.6795038 266.8072089 236.3427887 271.54837036 C242.14397941 288.46274398 242.14397941 288.46274398 255.5625 299.4375 C258.15468624 300.60751783 260.7645762 301.71602715 263.39208984 302.80419922 C267.8857454 304.86466775 271.84381144 307.66055939 275.875 310.5 C276.66285889 311.04962402 277.45071777 311.59924805 278.26245117 312.16552734 C290.28197779 320.63671953 301.40659193 329.80733962 312 340 C312.57782227 340.55059082 313.15564453 341.10118164 313.75097656 341.66845703 C322.33648539 349.88119254 329.93376169 358.45518421 337 368 C337.41701172 368.55091309 337.83402344 369.10182617 338.26367188 369.66943359 C371.20159149 413.20555278 387.26442505 467.27967192 387.1875 521.5 C387.18656342 522.34992523 387.18562683 523.19985046 387.18466187 524.07553101 C387.15577298 536.14980596 387.06942035 548.07288466 385 560 C384.83870605 560.9398877 384.67741211 561.87977539 384.51123047 562.84814453 C377.66538981 601.60453466 363.88942312 639.34498913 340 671 C339.55446777 671.598125 339.10893555 672.19625 338.64990234 672.8125 C331.97760518 681.72490269 324.72372552 689.989552 317 698 C316.38463379 698.64259766 315.76926758 699.28519531 315.13525391 699.94726562 C306.30886647 709.12336539 297.26891996 717.47316554 287 725 C286.43071777 725.42474609 285.86143555 725.84949219 285.27490234 726.28710938 C267.90421348 739.23554506 249.31330096 748.85435684 229.5 757.5 C226.27409542 758.91505426 223.04931846 760.33258115 219.82617188 761.75390625 C218.14672525 762.49439481 216.46615325 763.23235268 214.78320312 763.96484375 C203.36680169 768.99501453 193.21269594 775.98189996 182.85498047 782.85498047 C141.35215053 810.37747386 98.35970187 824.48499994 49 830 C47.84745728 830.14574463 47.84745728 830.14574463 46.67163086 830.29443359 C-2.80916279 836.11447415 -64.2387994 826.52044498 -105.38484192 797.3067627 C-112.2719062 792.5250596 -117.69131055 790.80610452 -125.99609375 790.1796875 C-127.12657639 790.07008698 -128.25705902 789.96048645 -129.42179871 789.8475647 C-131.83877388 789.61678378 -134.25704864 789.39928386 -136.67633057 789.1940918 C-140.49531244 788.87009528 -144.30958436 788.51109795 -148.12451172 788.14257812 C-153.29373567 787.64538261 -158.4638435 787.16042779 -163.63525391 786.68652344 C-239.92657678 779.64325721 -310.14356466 762.629682 -367 708 C-367.53753906 707.484375 -368.07507813 706.96875 -368.62890625 706.4375 C-375.96720032 699.354599 -382.73036893 692.06256514 -389 684 C-389.79921875 683.00613281 -390.5984375 682.01226563 -391.421875 680.98828125 C-397.99222284 672.74683265 -403.59411231 664.03842735 -409 655 C-409.36367676 654.4004248 -409.72735352 653.80084961 -410.10205078 653.18310547 C-415.591659 644.10637901 -420.04306045 634.82520623 -424 625 C-424.29261719 624.2771582 -424.58523438 623.55431641 -424.88671875 622.80957031 C-448.94266941 562.59090779 -448.58038083 490.64801044 -423.15234375 430.89453125 C-422.4386071 429.26139386 -421.72107653 427.62990993 -421 426 C-420.62504395 425.1445459 -420.25008789 424.2890918 -419.86376953 423.40771484 C-411.01299447 403.43172564 -398.98183207 379.58807349 -382.53125 364.77734375 C-382.0259375 364.19082031 -381.520625 363.60429687 -381 363 C-381.47080366 359.28539128 -382.65726333 355.86730648 -383.890625 352.34375 C-406.30010744 287.39642156 -406.42501977 216.49343766 -376.09814453 153.7590332 C-374.45620334 150.4747389 -372.73442966 147.23613439 -371 144 C-370.62649414 143.28779297 -370.25298828 142.57558594 -369.86816406 141.84179688 C-361.08182486 125.11775738 -350.5097961 110.13493578 -338 96 C-337.22914063 95.11828125 -336.45828125 94.2365625 -335.6640625 93.328125 C-327.6192967 84.23895101 -319.21300436 75.77805541 -309.64453125 68.28955078 C-308.47364387 67.37140542 -307.30746216 66.44724546 -306.14453125 65.51904297 C-295.59157854 57.10415165 -284.73838739 49.66382938 -273 43 C-272.20142578 42.54383301 -271.40285156 42.08766602 -270.58007812 41.61767578 C-256.29652927 33.55283406 -241.45796187 27.44290727 -226 22 C-225.25427734 21.73493652 -224.50855469 21.46987305 -223.74023438 21.19677734 C-195.85910265 11.52387235 -165.10542139 8.0786449 -136 4 C-135.28307983 3.89945313 -134.56615967 3.79890625 -133.82751465 3.6953125 C-123.90199941 2.31188509 -113.96118509 1.0995795 -104 0 C-103.33665649 -0.0751886 -102.67331299 -0.1503772 -101.98986816 -0.22784424 C-68.74744959 -3.99270372 -32.97271109 -6.64602083 0 0 Z " fill="#FEFEFE" transform="translate(483,44)"/>
<path d="M0 0 C1.07121094 0.57621094 2.14242188 1.15242187 3.24609375 1.74609375 C10.76749072 5.86267972 17.52836595 10.32971249 24 16 C25.45019531 17.25103516 25.45019531 17.25103516 26.9296875 18.52734375 C36.65748293 27.07394018 44.78217004 36.51417142 51.54296875 47.61328125 C52.68158616 49.47841594 53.91736793 51.2843151 55.1875 53.0625 C57.25263921 56.40944976 58.54930862 59.78991025 59.94140625 63.45703125 C60.92109954 65.8104642 62.04278041 67.83354705 63.375 70 C69.15235007 80.07925382 71.8655243 92.01018043 74.53369141 103.23168945 C76.63734191 111.90951859 79.79417469 120.14863399 83.24414062 128.36791992 C86.0737241 135.14765958 88.80882446 141.96337705 91.53515625 148.78515625 C92.60282104 151.44884639 93.67160345 154.11208796 94.74023438 156.77539062 C96.39228899 160.89352884 98.04300823 165.01218421 99.68823242 169.13305664 C106.25961245 185.58770535 113.04308619 201.89742858 120.34155273 218.04467773 C123.90370355 225.9590336 127.37389985 233.91619106 130.18359375 242.1328125 C133.59236246 252.92419128 133.59236246 252.92419128 141.0234375 260.6796875 C144.00105601 260.96966935 146.84711548 260.9422729 149.83203125 260.86035156 C154.35009889 261.15138024 158.57096487 262.88425749 162.8125 264.375 C163.68366455 264.66890625 164.5548291 264.9628125 165.45239258 265.265625 C171.11276204 267.21216765 176.57172877 269.48046589 182 272 C182 272.66 182 273.32 182 274 C182.82757812 274.22429687 183.65515625 274.44859375 184.5078125 274.6796875 C204.89109521 282.38611877 223.26412633 303.04059476 232.1875 322.5 C232.79576567 323.9983425 233.39942357 325.49855892 234 327 C234.48210938 328.09183594 234.96421875 329.18367188 235.4609375 330.30859375 C248.50482125 359.86412547 248.74104485 394.48913174 237.61889648 424.87841797 C226.26358687 453.51473658 203.01804303 477.44583754 175 490 C169.44985903 492.33239044 163.85675391 494.55741105 158.26708984 496.79296875 C138.64253143 504.69613303 121.08099822 514.62950888 104 527.0625 C90.84277104 536.58591752 77.33243328 543.66168649 62 549 C60.88109375 549.41121094 59.7621875 549.82242188 58.609375 550.24609375 C43.91417993 555.28602874 28.66999975 555.20031604 13.3125 555.3125 C12.57014099 555.32212769 11.82778198 555.33175537 11.06292725 555.3416748 C-21.48587402 555.70273935 -48.48154833 542.97492635 -72 521 C-72.6496875 520.2575 -73.299375 519.515 -73.96875 518.75 C-76.53348203 516.54038471 -77.85278633 516.54465407 -81.1875 516.6875 C-82.06792969 516.71199219 -82.94835937 516.73648438 -83.85546875 516.76171875 C-85.9799699 516.77173822 -85.9799699 516.77173822 -87 518 C-91.36878752 518.25579891 -95.74962512 518.18523999 -100.125 518.1875 C-101.34960938 518.19974609 -102.57421875 518.21199219 -103.8359375 518.22460938 C-110.01245282 518.23463619 -115.08615772 517.87688758 -121 516 C-130.27185168 514.39081101 -139.63618926 513.44807259 -149 512.5625 C-150.30654541 512.43617188 -151.61309082 512.30984375 -152.95922852 512.1796875 C-160.60114304 511.45120751 -168.24686416 510.81421058 -175.90234375 510.24609375 C-176.73762604 510.18337784 -177.57290833 510.12066193 -178.4335022 510.05604553 C-182.50636401 509.75107921 -186.57948737 509.45571434 -190.65429688 509.17797852 C-215.08704184 507.43306045 -215.08704184 507.43306045 -225.89453125 502.8046875 C-228.80761861 501.69133686 -231.79623928 500.97661902 -234.8125 500.1875 C-240.59887443 498.57673196 -245.45577592 496.39118431 -250.625 493.36328125 C-253.11138674 491.86232169 -253.11138674 491.86232169 -256.4375 490.625 C-267.14912584 485.73899523 -275.63907411 478.08854445 -284 470 C-284.76570313 469.27425781 -285.53140625 468.54851562 -286.3203125 467.80078125 C-293.43220077 460.91874488 -298.7332509 453.1615523 -303.6875 444.625 C-304.39616211 443.44550781 -304.39616211 443.44550781 -305.11914062 442.2421875 C-307.96938718 437.34919762 -309.89629225 432.66548075 -311.3894043 427.20507812 C-312.30298416 423.90581651 -313.66578443 420.84405084 -315.03515625 417.71484375 C-318.26661172 408.62228687 -318.27951069 399.84829724 -318.20581055 390.32470703 C-318.18749191 387.87391786 -318.18530184 385.42350699 -318.18554688 382.97265625 C-318.18063224 381.39583011 -318.17480416 379.81900649 -318.16796875 378.2421875 C-318.16685593 377.51909393 -318.1657431 376.79600037 -318.16459656 376.05099487 C-318.0538567 364.0538567 -318.0538567 364.0538567 -316 362 C-315.74665901 360.48300635 -315.52364736 358.96093959 -315.3125 357.4375 C-310.41023356 329.81304971 -290.89978604 303.61868121 -268.24291992 287.68115234 C-253.66065686 277.97234983 -234.92151462 268 -217 268 C-216.96261719 267.38253906 -216.92523438 266.76507813 -216.88671875 266.12890625 C-216.82097656 265.28199219 -216.75523437 264.43507813 -216.6875 263.5625 C-216.62949219 262.73878906 -216.57148438 261.91507812 -216.51171875 261.06640625 C-216.07212366 258.43219139 -215.44668654 256.29121238 -214.55859375 253.79296875 C-212.84133991 248.84147608 -212.06174282 243.93178671 -211.375 238.75 C-211.13381018 237.01548598 -210.89165285 235.28110616 -210.6484375 233.546875 C-210.48359863 232.35674805 -210.48359863 232.35674805 -210.31542969 231.14257812 C-209.96200339 228.74190535 -209.51912573 226.37034768 -209 224 C-209.81210937 223.78214844 -210.62421875 223.56429687 -211.4609375 223.33984375 C-215.95665501 221.63782266 -219.65155827 219.23964159 -223.625 216.5625 C-224.41898193 216.02971436 -225.21296387 215.49692871 -226.03100586 214.94799805 C-232.98522623 210.18436061 -239.01245754 204.92479875 -245 199 C-245.81984375 198.24074219 -246.6396875 197.48148438 -247.484375 196.69921875 C-253.03591002 191.45506738 -257.4063625 185.75973613 -261 179 C-261 178.34 -261 177.68 -261 177 C-261.66 177 -262.32 177 -263 177 C-265.94147948 170.67994987 -268.4167832 164.29749411 -270.625 157.6875 C-270.9240625 156.82705078 -271.223125 155.96660156 -271.53125 155.08007812 C-275.38340171 143.60032513 -276.32594905 132.56324122 -276.25 120.5 C-276.26160156 118.65728516 -276.26160156 118.65728516 -276.2734375 116.77734375 C-276.25691122 108.98520316 -275.55570639 101.63309764 -274 94 C-273.77699219 92.88625 -273.55398438 91.7725 -273.32421875 90.625 C-266.02670418 60.53954118 -246.13370565 34.36158244 -220 18 C-214.81312469 15.01629072 -209.45016789 12.46193206 -204 10 C-203.10796875 9.59136719 -202.2159375 9.18273437 -201.296875 8.76171875 C-185.44360472 1.96371047 -167.48544876 -0.74279092 -150.5625 -3.4375 C-149.90414154 -3.54260895 -149.24578308 -3.6477179 -148.56747437 -3.75601196 C-126.02932689 -7.34057923 -103.50859752 -10.21051872 -80.71875 -11.60546875 C-77.61998044 -11.79746282 -74.65267029 -12.05398496 -71.58203125 -12.53125 C-46.56517861 -15.80499298 -22.14708875 -12.14769771 0 0 Z " fill="#5226FD" transform="translate(492,186)"/>
<path d="M0 0 C4.83122166 -0.10792479 8.12849927 0.12339637 12.59765625 2.12109375 C12.59765625 2.78109375 12.59765625 3.44109375 12.59765625 4.12109375 C13.73267578 4.50394531 13.73267578 4.50394531 14.890625 4.89453125 C23.84967505 8.9538988 29.10430245 22.37600088 32.59765625 31.12109375 C33.56670065 34.42933325 34.32970511 37.66621213 34.9296875 41.05859375 C35.61331259 44.19287486 36.62798915 46.98072699 37.78833008 49.96142578 C39.50810314 54.55059999 40.84818125 59.27546658 42.25976562 63.96679688 C44.31868242 70.64333708 46.93271032 76.92439757 50.16015625 83.12109375 C51.32247763 85.54680793 52.16559892 87.76117816 52.97265625 90.30859375 C54.40919685 94.7996733 56.29531583 98.99404997 58.31640625 103.25 C60.29697097 107.6881557 61.91928433 112.25227216 63.57666016 116.81811523 C71.3050004 138.04415614 80.22431438 158.66212018 89.43896484 179.27880859 C90.91210416 182.57609728 92.37216352 185.87876555 93.82275391 189.18603516 C94.18218582 190.00292313 94.54161774 190.8198111 94.91194153 191.66145325 C95.58992147 193.2031828 96.26545788 194.74599025 96.93803406 196.29008484 C98.60703527 200.07633738 100.42886905 203.5879466 102.59765625 207.12109375 C103.37109375 209.62890625 103.37109375 209.62890625 103.97265625 212.24609375 C105.26192924 217.27493342 107.11506625 221.74394456 109.3359375 226.42578125 C111.28184438 230.58267212 112.94336937 234.84152552 114.59765625 239.12109375 C114.98050781 240.10142578 114.98050781 240.10142578 115.37109375 241.1015625 C116.86938455 245.00839603 118.19103573 248.95031717 119.47265625 252.93359375 C121.43472353 258.87970605 123.92048339 264.46833705 126.59765625 270.12109375 C129.33879051 276.02133664 131.63684905 281.9168858 133.59765625 288.12109375 C140.3911937 286.07682837 146.61901824 283.31837216 152.97265625 280.18359375 C177.17029182 268.51593537 177.17029182 268.51593537 188.78515625 272.24609375 C194.129021 274.55022977 198.05094538 278.07544389 201.53515625 282.68359375 C203.82797975 290.10155212 203.73093401 297.612537 200.41015625 304.68359375 C197.25164786 310.62961113 192.74944644 313.33315402 186.53515625 315.55859375 C184.80072266 316.20054687 184.80072266 316.20054687 183.03125 316.85546875 C181.89816406 317.273125 180.76507812 317.69078125 179.59765625 318.12109375 C152.29534824 328.71945804 126.537858 343.03248177 103.24194336 360.76904297 C98.8009981 364.12109375 98.8009981 364.12109375 96.59765625 364.12109375 C96.59765625 364.78109375 96.59765625 365.44109375 96.59765625 366.12109375 C86.46745215 370.66934865 72.49828374 373.29205785 61.59765625 370.18359375 C56.3499363 368.03254815 52.86538098 363.61930834 49.59765625 359.12109375 C48.13137177 354.72224032 47.88737598 350.71059706 48.59765625 346.12109375 C50.1579713 343.00046365 52.19236522 340.62993938 54.59765625 338.12109375 C55.06075195 337.61344482 55.52384766 337.1057959 56.00097656 336.58276367 C60.85487053 331.44762007 66.32192306 327.65564039 72.22265625 323.80859375 C73.15078125 323.18919922 74.07890625 322.56980469 75.03515625 321.93164062 C79.14674535 319.21905211 82.95926019 316.83434269 87.59765625 315.12109375 C86.46251665 310.86432023 85.12560149 306.75452769 83.59765625 302.62109375 C81.25246902 296.24565885 79.48462609 289.89220105 78.16015625 283.234375 C77.56458917 280.99686257 76.66047672 279.17200513 75.59765625 277.12109375 C74.16082962 272.54120888 73.09555548 267.93642649 72.16015625 263.234375 C71.66953115 261.07612061 71.66953115 261.07612061 70.53515625 259.1015625 C69.59765625 257.12109375 69.59765625 257.12109375 69.59765625 253.12109375 C53.34135924 254.08277826 38.04685825 256.62515878 22.30029297 260.71826172 C18.63108094 261.66167788 15.39986062 262.35873152 11.59765625 262.12109375 C11.59765625 262.78109375 11.59765625 263.44109375 11.59765625 264.12109375 C10.6219165 264.27674805 10.6219165 264.27674805 9.62646484 264.43554688 C2.32127751 265.67314374 -4.68348447 267.49915086 -11.77734375 269.62109375 C-12.83050781 269.92917969 -13.88367188 270.23726562 -14.96875 270.5546875 C-19.53965863 271.9045249 -23.99517441 273.29661508 -28.40234375 275.12109375 C-28.53511719 276.18070313 -28.66789063 277.2403125 -28.8046875 278.33203125 C-28.9828825 279.72007654 -29.16127835 281.10809606 -29.33984375 282.49609375 C-29.47036133 283.54410156 -29.47036133 283.54410156 -29.60351562 284.61328125 C-30.2890625 289.89453125 -30.2890625 289.89453125 -31.40234375 292.12109375 C-30.39171875 292.18296875 -29.38109375 292.24484375 -28.33984375 292.30859375 C-23.90628966 292.93938397 -20.58270042 295.00786862 -17.40234375 298.12109375 C-15.13831341 301.49858164 -15.19036855 304.37023433 -15.27734375 308.37109375 C-15.29539062 309.44875 -15.3134375 310.52640625 -15.33203125 311.63671875 C-15.35523438 312.4565625 -15.3784375 313.27640625 -15.40234375 314.12109375 C-16.06234375 314.12109375 -16.72234375 314.12109375 -17.40234375 314.12109375 C-17.50675781 314.86359375 -17.61117187 315.60609375 -17.71875 316.37109375 C-19.07362722 321.82157124 -23.17742424 325.44737492 -27.5625 328.74609375 C-39.18309422 335.57489035 -54.00349393 331.82866159 -66.67431641 330.26416016 C-74.52232611 329.29844468 -82.30868065 328.66178346 -90.20703125 328.33203125 C-93.40234375 328.12109375 -93.40234375 328.12109375 -95.37060547 327.61889648 C-98.0013476 326.97432989 -100.59346946 326.96029729 -103.29101562 326.88134766 C-111.94304895 326.61477343 -120.36560613 325.67355042 -128.90234375 324.24609375 C-129.87977539 324.08455811 -130.85720703 323.92302246 -131.86425781 323.7565918 C-151.10091666 320.40109531 -151.10091666 320.40109531 -156.08984375 315.55859375 C-156.73308594 314.95917969 -157.37632812 314.35976563 -158.0390625 313.7421875 C-159.40234375 312.12109375 -159.40234375 312.12109375 -159.40234375 310.12109375 C-160.06234375 310.12109375 -160.72234375 310.12109375 -161.40234375 310.12109375 C-163.55163477 303.67322068 -163.62227527 295.69650475 -160.71484375 289.55859375 C-159.57015625 288.35203125 -159.57015625 288.35203125 -158.40234375 287.12109375 C-157.63921875 286.23421875 -156.87609375 285.34734375 -156.08984375 284.43359375 C-149.95120879 279.15151251 -144.26112523 278.65361087 -136.46484375 278.80859375 C-135.09344238 278.82224976 -135.09344238 278.82224976 -133.69433594 278.83618164 C-111.28329509 279.24014241 -111.28329509 279.24014241 -108.40234375 282.12109375 C-106.18699751 282.35064474 -103.96502128 282.5167416 -101.7421875 282.65625 C-100.7454879 282.72071571 -100.7454879 282.72071571 -99.72865295 282.78648376 C-97.59930061 282.92320219 -95.46960793 283.05346413 -93.33984375 283.18359375 C-91.8990616 283.27496673 -90.45830591 283.36675814 -89.01757812 283.45898438 C-85.47946135 283.68454955 -81.94101154 283.90432471 -78.40234375 284.12109375 C-78.35118408 283.39696289 -78.30002441 282.67283203 -78.24731445 281.92675781 C-77.68210294 274.51051571 -76.77948394 267.21170795 -75.58984375 259.87109375 C-75.41461182 258.77772705 -75.23937988 257.68436035 -75.05883789 256.55786133 C-73.85192985 249.26094162 -72.2545837 242.22100255 -70.33984375 235.078125 C-68.9585992 229.60508383 -68.26650681 224.01877093 -67.47851562 218.4362793 C-64.81776744 199.74743125 -64.81776744 199.74743125 -62.375 195.21484375 C-60.93087027 192.10619501 -60.77642371 189.01453339 -60.40234375 185.62109375 C-59.62326681 178.55375298 -59.62326681 178.55375298 -58.41601562 176.18945312 C-57.29330485 173.89860398 -56.9479292 172.02033235 -56.62109375 169.49609375 C-56.50121094 168.6246875 -56.38132812 167.75328125 -56.2578125 166.85546875 C-56.14050781 165.953125 -56.02320313 165.05078125 -55.90234375 164.12109375 C-55.66931473 162.32856283 -55.42995397 160.53684115 -55.18359375 158.74609375 C-55.02987305 157.55886719 -55.02987305 157.55886719 -54.87304688 156.34765625 C-54.37590167 153.99601503 -53.47543612 152.26018931 -52.40234375 150.12109375 C-51.91328771 147.95846268 -51.91328771 147.95846268 -51.65625 145.671875 C-51.54087891 144.82302734 -51.42550781 143.97417969 -51.30664062 143.09960938 C-51.08130265 141.3419732 -50.85731289 139.58416358 -50.63476562 137.82617188 C-49.94149897 132.74349314 -48.82937939 128.21297976 -47.10913086 123.38745117 C-45.86080939 119.38462968 -45.41947778 115.2709347 -44.90234375 111.12109375 C-44.16959518 105.24101266 -43.09326505 99.96049474 -41.10693359 94.37646484 C-39.88791536 90.47442381 -39.46781423 86.47910551 -38.96484375 82.43359375 C-37.99525661 75.30647315 -36.52875084 68.67609344 -34.38671875 61.796875 C-32.39905236 54.37467629 -31.47183962 46.72099624 -30.40234375 39.12109375 C-46.16165042 39.77636638 -60.54649784 42.94665656 -75.63671875 47.24609375 C-88.00461564 50.75452741 -100.15689245 53.64997644 -112.40234375 48.12109375 C-116.2013502 45.59302764 -118.93985748 43.50855257 -120.40234375 39.12109375 C-120.88748857 33.60953042 -121.16971691 28.74438313 -118.77734375 23.68359375 C-111.48003587 15.81018262 -103.5026105 12.10698584 -92.70605469 11.35107422 C-90.50045019 11.13088776 -88.46591942 10.73087519 -86.3125 10.21484375 C-58.26501141 3.81070541 -28.70458993 1.02163294 0 0 Z " fill="#FDFCFE" transform="translate(435.40234375,271.87890625)"/>
<path d="M0 0 C2.79912637 1.39956319 3.08048613 3.02484507 4.328125 5.87890625 C4.79162354 6.93045898 5.25512207 7.98201172 5.73266602 9.06542969 C6.48374634 10.79647949 6.48374634 10.79647949 7.25 12.5625 C8.03105103 14.34188965 8.03105103 14.34188965 8.82788086 16.15722656 C9.95725653 18.73028737 11.08246895 21.30511488 12.20458984 23.88134766 C14.0626713 28.14677085 15.93130317 32.40753098 17.80078125 36.66796875 C20.22640442 42.19888513 22.64935259 47.73095779 25.06640625 53.265625 C25.56084229 54.39774414 26.05527832 55.52986328 26.56469727 56.69628906 C29.09328315 62.51646667 31.57119791 68.35460759 33.99609375 74.21875 C34.85044992 76.27545393 35.70561107 78.33182207 36.56079102 80.38818359 C37.14500082 81.79542803 37.72768517 83.20330673 38.30883789 84.61181641 C39.15859053 86.67012213 40.01431184 88.725862 40.87109375 90.78125 C41.37568115 91.99876953 41.88026855 93.21628906 42.40014648 94.47070312 C43.56809633 97.0472151 44.74431801 99.301729 46.19555664 101.70117188 C48 105 48 105 48 109 C47.07590332 109.15557373 46.15180664 109.31114746 45.19970703 109.47143555 C40.8409488 110.20707386 36.48278015 110.94609234 32.125 111.6875 C30.94283401 111.88850311 30.94283401 111.88850311 29.73678589 112.09356689 C18.06622749 114.08252754 6.43035029 116.19323235 -5.17724609 118.52612305 C-6.15902832 118.72117432 -7.14081055 118.91622559 -8.15234375 119.1171875 C-8.99788818 119.28847168 -9.84343262 119.45975586 -10.71459961 119.63623047 C-13 120 -13 120 -17 120 C-17 120.66 -17 121.32 -17 122 C-19.31 122 -21.62 122 -24 122 C-23.45906709 114.45974312 -22.40282016 107.17849273 -20.8828125 99.77709961 C-20.66969421 98.71556671 -20.45657593 97.65403381 -20.23699951 96.56033325 C-19.538701 93.08982482 -18.83204448 89.62108 -18.125 86.15234375 C-17.63514932 83.72913659 -17.1457355 81.30584108 -16.65673828 78.88246155 C-15.63481223 73.82429992 -14.60897792 68.76695266 -13.58007812 63.71020508 C-12.25922677 57.21796109 -10.94612796 50.72417961 -9.63565063 44.22983456 C-8.62741965 39.23583825 -7.61619718 34.2424517 -6.60394287 29.24926949 C-6.11842687 26.85351935 -5.63360297 24.45762885 -5.1494751 22.06159782 C-4.47493749 18.72658635 -3.79663407 15.39236394 -3.1171875 12.05834961 C-2.91663757 11.06359116 -2.71608765 10.0688327 -2.50946045 9.04393005 C-2.32441956 8.13993469 -2.13937866 7.23593933 -1.94873047 6.30455017 C-1.70870804 5.12304083 -1.70870804 5.12304083 -1.46383667 3.91766262 C-1 2 -1 2 0 0 Z " fill="#5529FD" transform="translate(441,377)"/>
<path d="M0 0 C0.66 0.33 1.32 0.66 2 1 C-4.93 7.93 -11.86 14.86 -19 22 C-19.66 21.67 -20.32 21.34 -21 21 C-7.21875 5.46875 -7.21875 5.46875 0 0 Z " fill="#734FFD" transform="translate(262,211)"/>
<path d="M0 0 C-1.33332095 3.99996286 -3.4957827 4.83782337 -7 7 C-7.66 6.67 -8.32 6.34 -9 6 C-7.8803014 4.99406757 -6.7540588 3.9954151 -5.625 3 C-4.68527344 2.1646875 -4.68527344 2.1646875 -3.7265625 1.3125 C-2 0 -2 0 0 0 Z " fill="#623AFD" transform="translate(353,226)"/>
</svg>
